<?xml version="1.0" encoding="UTF-8"?>
<svg id="Calque_2" data-name="Calque 2" xmlns="http://www.w3.org/2000/svg" viewBox="0 0 361.6 363.45">
  <defs>
    <style>
      .cls-1 {
        fill: none;
        stroke: #fff;
        stroke-linecap: round;
        stroke-linejoin: round;
        stroke-width: 48px;
      }

      .cls-2 {
        fill: #fff;
        stroke-width: 0px;
      }
    </style>
  </defs>
  <g id="Calque_1-2" data-name="Calque 1">
    <g>
      <circle class="cls-1" cx="77.52" cy="192.81" r="53.52"/>
      <circle class="cls-2" cx="241.04" cy="317.51" r="26.98"/>
      <circle class="cls-2" cx="334.62" cy="112.31" r="26.98"/>
      <path class="cls-2" d="M86.67,86.27l-11.35-16.84-19.53-5.58c-10.71-3.06-12.96-17.23-3.72-23.46l16.84-11.35,5.58-19.53c3.06-10.71,17.23-12.96,23.46-3.72l11.35,16.84,19.53,5.58c10.71,3.06,12.96,17.23,3.72,23.46l-16.84,11.35-5.58,19.53c-3.06,10.71-17.23,12.96-23.46,3.72Z"/>
      <path class="cls-1" d="M72.42,246.72c-8.33,13.08-10.84,26.31-7.97,41.6,10.84,57.77,61.63,58.56,87.63,41.35"/>
      <path class="cls-1" d="M264.81,75.58c-13.02-11.82-32.85-14.96-49.41-9.04-16.56,5.92-33.23,19.34-35.33,36.8-5.57,46.27,53.72,43.03,66.74,45.79,25.75,5.45,36.76,21.88,38.52,38.99,1.76,17.11-9,46.38-55.82,51.49-29.49,3.22-46.78-15.48-63.57-24.74-9.7-5.35-24.12-5.6-38.46-2.88"/>
    </g>
  </g>
</svg>