<svg width="49" height="44" viewBox="0 0 49 44" fill="none" xmlns="http://www.w3.org/2000/svg">
<g clip-path="url(#clip0_1706_1032)">
<path d="M45.3373 18.6113C45.3278 18.2777 45.1575 17.9845 44.903 17.8079C44.8727 17.7885 44.8425 17.7691 44.8107 17.7529L26.8558 7.16917C26.8558 7.16917 26.8415 7.15945 26.8351 7.15621L26.746 7.10438C26.746 7.10438 26.746 7.10276 26.7428 7.10276C26.6107 7.03472 26.4596 6.99585 26.302 6.99585C25.8088 6.99585 25.3998 7.36192 25.3251 7.84138C25.3155 7.89483 25.3107 7.9499 25.3107 8.00498V23.2132C25.306 23.529 25.4142 23.8287 25.6719 23.9307L38.9233 31.6263C39.0792 31.717 39.1763 31.8871 39.1763 32.0702V32.3147C39.1763 32.71 38.7562 32.9562 38.4205 32.7586L26.0666 25.4485C25.7308 25.2508 25.3107 25.4971 25.3107 25.8923V31.7268C25.3076 31.7575 25.306 31.7883 25.306 31.8191C25.306 31.8499 25.306 31.8823 25.3107 31.913C25.3123 31.9357 25.3155 31.9584 25.3203 31.9811C25.3648 32.2694 25.5303 32.5156 25.7626 32.6662L25.8438 32.7148C25.8438 32.7148 25.8597 32.7229 25.8661 32.7278L43.7096 43.4087L43.7143 43.4119C43.8862 43.5577 44.1058 43.6451 44.3476 43.6451C44.5179 43.6451 44.6786 43.6014 44.8186 43.5237L44.8759 43.4896C45.1528 43.3098 45.3373 42.9956 45.3373 42.6376V27.8943C45.3389 27.6238 45.2992 27.3501 44.9905 27.1476L31.6341 19.4277C31.4766 19.337 31.3795 19.1669 31.3795 18.9823V18.7037C31.3795 18.3101 31.798 18.0639 32.1337 18.2598L44.5831 25.5602C44.9173 25.7578 45.3373 25.51 45.3373 25.1164V18.7118C45.3389 18.6907 45.3389 18.668 45.3389 18.6454C45.3389 18.634 45.3389 18.6227 45.3373 18.6113Z" fill="#F44463"/>
<path d="M23.7307 7.11733C23.7307 7.11733 23.7259 7.11571 23.7243 7.11409C23.6702 7.08494 23.6129 7.05902 23.5525 7.0412C23.4602 7.01205 23.3615 6.99585 23.2581 6.99585C23.1324 6.99585 23.0131 7.02177 22.9017 7.0655C22.8492 7.08656 22.7998 7.10924 22.7521 7.13677L4.90064 17.6281L4.60627 17.8014L4.5649 17.8257C4.53467 17.8419 4.50444 17.8581 4.47579 17.8776L4.44238 17.897C4.44238 17.897 4.4392 17.8986 4.43761 17.9003L4.43283 17.9084C4.22757 18.0606 4.08118 18.2906 4.03981 18.5563C4.03026 18.6097 4.02549 18.6648 4.02549 18.7199V42.474C4.01594 42.5275 4.01117 42.5826 4.01117 42.6376C4.01117 42.6927 4.01594 42.7478 4.02549 42.7996C4.04777 42.9389 4.09868 43.0653 4.17029 43.1787C4.22121 43.2613 4.28167 43.3358 4.35486 43.3989C4.35486 43.3989 4.35486 43.4006 4.35805 43.4022C4.53149 43.5544 4.75743 43.6452 5.00407 43.6452C5.17432 43.6452 5.33503 43.6014 5.47506 43.5237L5.53234 43.4897L9.57553 41.0924L9.63281 41.0583V41.0551C9.88422 40.8931 10.0561 40.621 10.0879 40.3084V40.3051L10.0895 40.2825C10.0911 40.2566 10.0943 40.2306 10.0943 40.2047C10.0943 40.1707 10.0927 40.1367 10.0895 40.1043V22.8309C10.0895 22.6527 10.1802 22.4875 10.3297 22.3935L10.4061 22.345C10.7419 22.136 11.1731 22.3822 11.1731 22.7823V39.2555C11.1731 39.6508 11.5947 39.897 11.9289 39.6993L16.8536 36.7789C17.0095 36.6882 17.1686 36.4193 17.1686 36.2362V18.6956C17.1686 18.5125 17.2657 18.3425 17.4232 18.2501C17.5028 18.2048 17.5871 18.1837 17.6699 18.1837C17.9324 18.1837 18.1743 18.3975 18.1743 18.6956V35.1056C18.1743 35.5009 18.5959 35.7471 18.9301 35.5478L23.7323 32.7003L23.7832 32.6695L23.7896 32.6662C23.8023 32.6581 23.815 32.6484 23.8261 32.6387C24.0028 32.5124 24.138 32.3277 24.2033 32.1139C24.2319 32.0183 24.2494 31.9195 24.2494 31.8142V8.00498C24.2494 7.62271 24.0394 7.28903 23.7307 7.11733Z" fill="#F44463"/>
<path d="M25.4714 0H23.8802C23.1332 0 22.5277 0.616423 22.5277 1.37682V3.15858C22.5277 3.91898 23.1332 4.5354 23.8802 4.5354H25.4714C26.2184 4.5354 26.8239 3.91898 26.8239 3.15858V1.37682C26.8239 0.616423 26.2184 0 25.4714 0Z" fill="#F44463"/>
<mask id="mask0_1706_1032" style="mask-type:luminance" maskUnits="userSpaceOnUse" x="1" y="0" width="24" height="18">
<path d="M24.6758 0.163574H1.40002V17.1017H24.6758V0.163574Z" fill="white"/>
</mask>
<g mask="url(#mask0_1706_1032)">
<path d="M24.6759 0.163574L1.92674 13.5851C1.42392 13.8815 1.25049 14.5376 1.54167 15.051L2.40091 16.5655C2.69369 17.0806 3.34289 17.2556 3.84729 16.9559L24.6759 4.5532V0.163574Z" fill="#F44463"/>
</g>
<mask id="mask1_1706_1032" style="mask-type:luminance" maskUnits="userSpaceOnUse" x="24" y="0" width="24" height="18">
<path d="M47.9516 0.163574H24.6758V17.1017H47.9516V0.163574Z" fill="white"/>
</mask>
<g mask="url(#mask1_1706_1032)">
<path d="M24.6758 0.163574L47.425 13.5851C47.9278 13.8815 48.1012 14.5376 47.81 15.051L46.9508 16.5655C46.658 17.0806 46.0088 17.2556 45.5044 16.9559L24.6758 4.5532V0.163574Z" fill="#F44463"/>
</g>
<path d="M24.1571 4.85135C24.5061 4.66778 24.8514 4.66778 25.193 4.85135L24.6774 4.30225L24.1555 4.85135H24.1571Z" fill="#F44463"/>
</g>
<defs>
<clipPath id="clip0_1706_1032">
<rect width="46.55" height="43.6452" fill="white" transform="translate(1.40002)"/>
</clipPath>
</defs>
</svg>
